<?xml version="1.0" encoding="UTF-8"?>
<!DOCTYPE svg PUBLIC "-//W3C//DTD SVG 1.1//EN" "http://www.w3.org/Graphics/SVG/1.1/DTD/svg11.dtd">
<!-- Creator: CorelDRAW 2019 (64 Bit) -->
<svg xmlns="http://www.w3.org/2000/svg" xml:space="preserve" width="17.6025mm" height="32.4882mm" version="1.1" style="shape-rendering:geometricPrecision; text-rendering:geometricPrecision; image-rendering:optimizeQuality; fill-rule:evenodd; clip-rule:evenodd"
viewBox="0 0 194.87 359.66"
 xmlns:xlink="http://www.w3.org/1999/xlink">
 <defs>
  <style type="text/css">
   <![CDATA[
    .fil0 {fill:#00E7F9}
   ]]>
  </style>
 </defs>
 <g id="Camada_x0020_1">
  <metadata id="CorelCorpID_0Corel-Layer"/>
  <path class="fil0" d="M109.55 180.2c-0.94,2.21 -5.24,6.31 -7.08,8.64l-30.07 34.88c-0.48,0.55 -0.64,0.92 -1.12,1.47l-59.99 69.95c-6.31,7.08 -10.26,14.84 -10.87,24.97 -0.71,11.88 3.95,21.93 11.59,29.67 3.25,3.29 8.32,6.59 12.93,8.03 5.89,1.83 11.6,2.4 17.97,1.25 7.65,-1.38 12.31,-4.42 17.42,-8.66 2.71,-2.25 12.19,-13.62 15.34,-17.32l30.3 -35.39c3.39,-3.47 6.35,-7.5 9.7,-11.23l2.35 -2.77c0.52,-0.62 0.75,-0.99 1.13,-1.41l35.96 -41.89c3.02,-3.03 5.52,-6.5 8.32,-9.72 0.9,-1.04 1.76,-2.11 2.52,-2.87l5.93 -6.98c0.59,-0.73 0.5,-0.47 1.24,-1.31 3.34,-3.79 5.84,-7.24 9.51,-11.07 1,-1.04 1.76,-1.56 2.75,-2.76l6.03 -9.39c4.81,-10.45 4.72,-24.68 -1.07,-35.11l-1.55 -2.49c-0.78,-1.24 -1.26,-2.04 -2.1,-3.06 -0.98,-1.19 -1.45,-1.83 -2.35,-2.79l-7.35 -8.42c-0.86,-0.89 -1.29,-1.56 -2.38,-2.75l-4.75 -5.52c-0.47,-0.56 -0.61,-0.89 -1.12,-1.46l-52.23 -60.77c-3.44,-4.42 -7.85,-8.58 -11.23,-13.04 -2.99,-3.96 -6.44,-7.5 -9.6,-11.34l-2.38 -2.76c-0.91,-1.05 -1.56,-1.81 -2.38,-2.71 -1.08,-1.2 -1.36,-1.72 -2.38,-2.8l-9.72 -11.18c-0.41,-0.47 -0.71,-0.99 -1.14,-1.46l-10.68 -12.45c-0.53,-0.63 -0.9,-0.83 -1.42,-1.47l-3.56 -4.18c-5.48,-5.44 -12.03,-9.05 -20.66,-10.2 -23.63,-3.16 -43.06,17.36 -41.24,40.52 0.69,8.78 3.58,16.07 8.92,22.29l14.43 16.79c0.84,1.07 1.54,1.71 2.36,2.78l4.73 5.57c0.48,0.54 0.75,0.62 1.27,1.27l8.45 9.88c0.79,0.84 1.51,1.76 2.39,2.78l2.37 2.73c0.67,0.81 1.69,1.92 2.36,2.78 3.41,4.35 7.34,8.38 10.88,12.62l3.47 4.26c3.22,3.69 6.26,7.61 9.55,10.99l38.26 44.6z"/>
 </g>
</svg>
