<?xml version="1.0" encoding="UTF-8"?>
<!DOCTYPE svg PUBLIC "-//W3C//DTD SVG 1.1//EN" "http://www.w3.org/Graphics/SVG/1.1/DTD/svg11.dtd">
<!-- Creator: CorelDRAW 2019 (64 Bit) -->
<svg xmlns="http://www.w3.org/2000/svg" xml:space="preserve" width="32.4882mm" height="17.6025mm" version="1.1" style="shape-rendering:geometricPrecision; text-rendering:geometricPrecision; image-rendering:optimizeQuality; fill-rule:evenodd; clip-rule:evenodd"
viewBox="0 0 12169.76 6593.72"
 xmlns:xlink="http://www.w3.org/1999/xlink">
 <defs>
  <style type="text/css">
   <![CDATA[
    .fil0 {fill:#00E7F9}
   ]]>
  </style>
 </defs>
 <g id="Camada_x0020_1">
  <metadata id="CorelCorpID_0Corel-Layer"/>
  <path class="fil0" d="M6072.37 3706.94c-74.88,-31.73 -213.67,-177.18 -292.48,-239.66l-1180.33 -1017.42c-18.65,-16.14 -31.13,-21.61 -49.71,-37.87l-2367.03 -2029.79c-239.4,-213.37 -502.25,-347.28 -844.78,-367.88 -402.09,-24.16 -741.99,133.8 -1003.9,392.23 -111.33,109.83 -223.03,281.35 -271.65,437.56 -62.03,199.43 -81.25,392.5 -42.22,608.03 46.86,258.77 149.54,416.54 293,589.42 76.27,91.85 460.75,412.42 586.12,519.11l1197.38 1025.33c117.51,114.55 253.82,215.01 380.1,328.07l93.83 79.64c21.01,17.46 33.38,25.25 47.69,38.32l1417.37 1216.86c102.45,102.19 219.92,186.73 328.97,281.58 35.17,30.57 71.55,59.6 97.02,85.11l236.25 200.63c24.54,19.82 15.88,16.97 44.2,41.99 128.15,113.16 244.94,197.71 374.48,321.85 35.29,33.86 52.74,59.56 93.46,92.97l317.8 203.93c353.73,162.72 834.96,159.61 1188.12,-36.11l84.28 -52.33c41.84,-26.41 68.96,-42.74 103.42,-71.17 40.27,-33.26 61.99,-49.03 94.28,-79.6l284.8 -248.8c30.23,-29.11 52.74,-43.56 93.12,-80.57l186.92 -160.85c19.1,-15.85 30.23,-20.53 49.3,-38.06l2056.35 -1767.35c149.61,-116.35 290.23,-265.77 441.19,-379.98 133.99,-101.33 253.71,-217.94 383.54,-324.96l93.54 -80.39c35.47,-30.9 61.25,-52.93 91.62,-80.46 40.49,-36.71 58.21,-45.85 94.7,-80.69l378.34 -328.74c16.03,-13.78 33.34,-24.01 49.52,-38.43l421.41 -361.33c21.43,-17.83 28.06,-30.3 49.71,-48.1l141.45 -120.51c183.92,-185.35 306.23,-406.99 345.26,-698.99 106.83,-799.41 -587.39,-1457.12 -1371.11,-1395.5 -297.09,23.34 -543.72,121.1 -754.31,301.73l-568.25 488.17c-36.26,28.28 -58.02,52.07 -93.91,79.79l-188.57 160.17c-18.39,16.33 -20.98,25.25 -43.04,43.12l-334.36 285.81c-28.51,26.6 -59.48,50.98 -94.17,80.76l-92.52 80.31c-27.27,22.74 -65.03,57.09 -94.02,79.86 -147.1,115.52 -283.49,248.28 -426.92,368.03l-144.1 117.47c-124.7,108.93 -257.46,211.72 -372.01,323.08l-1509.15 1294.62z"/>
 </g>
</svg>
