<?xml version="1.0" encoding="UTF-8"?>
<!DOCTYPE svg PUBLIC "-//W3C//DTD SVG 1.1//EN" "http://www.w3.org/Graphics/SVG/1.1/DTD/svg11.dtd">
<!-- Creator: CorelDRAW 2019 (64 Bit) -->
<svg xmlns="http://www.w3.org/2000/svg" xml:space="preserve" width="71.525mm" height="57.1269mm" version="1.1" style="shape-rendering:geometricPrecision; text-rendering:geometricPrecision; image-rendering:optimizeQuality; fill-rule:evenodd; clip-rule:evenodd"
viewBox="0 0 1033.83 825.72"
 xmlns:xlink="http://www.w3.org/1999/xlink">
 <defs>
  <style type="text/css">
   <![CDATA[
    .fil0 {fill:#00E7F9}
   ]]>
  </style>
 </defs>
 <g id="Camada_x0020_1">
  <metadata id="CorelCorpID_0Corel-Layer"/>
  <path class="fil0" d="M193.4 0l647.03 0c106.37,0 193.4,87.03 193.4,193.4l0 20.06 0 83.21 0 335.65c0,106.37 -87.03,193.4 -193.4,193.4l-647.03 0c-106.37,0 -193.4,-87.03 -193.4,-193.4l0 -335.65 0 -83.21 0 -20.06c0,-106.37 87.03,-193.4 193.4,-193.4zm76.42 420.98l115.9 0c22.88,0 41.6,18.72 41.6,41.6l0 0c0,22.88 -18.72,41.6 -41.6,41.6l-115.9 0c-22.88,0 -41.6,-18.72 -41.6,-41.6l0 0c0,-22.88 18.72,-41.6 41.6,-41.6zm-192.33 -207.53l878.84 0 0 -3.03c0,-69.02 -56.47,-125.49 -125.49,-125.49l-627.87 0c-69.02,0 -125.49,56.47 -125.49,125.49l0 3.03zm878.84 83.21l-878.84 0 0 318.63c0,69.02 56.47,125.49 125.49,125.49l627.87 0c69.02,0 125.49,-56.47 125.49,-125.49l0 -318.63z"/>
 </g>
</svg>
