<?xml version="1.0" encoding="UTF-8"?>
<!DOCTYPE svg PUBLIC "-//W3C//DTD SVG 1.1//EN" "http://www.w3.org/Graphics/SVG/1.1/DTD/svg11.dtd">
<!-- Creator: CorelDRAW 2019 (64 Bit) -->
<svg xmlns="http://www.w3.org/2000/svg" xml:space="preserve" width="64.8943mm" height="74.1627mm" version="1.1" style="shape-rendering:geometricPrecision; text-rendering:geometricPrecision; image-rendering:optimizeQuality; fill-rule:evenodd; clip-rule:evenodd"
viewBox="0 0 852.8 974.59"
 xmlns:xlink="http://www.w3.org/1999/xlink">
 <defs>
  <style type="text/css">
   <![CDATA[
    .fil0 {fill:#15AABF}
   ]]>
  </style>
   <mask id="id0">
  <linearGradient id="id1" gradientUnits="userSpaceOnUse" x1="0.17" y1="489.78" x2="658.96" y2="489.77">
   <stop offset="0" style="stop-opacity:1; stop-color:white"/>
   <stop offset="0.188235" style="stop-opacity:-62.749; stop-color:white"/>
   <stop offset="1" style="stop-opacity:0; stop-color:white"/>
  </linearGradient>
    <rect style="fill:url(#id1)" x="-0.03" y="-0.03" width="852.86" height="974.66"/>
   </mask>
 </defs>
 <g id="Camada_x0020_1">
  <metadata id="CorelCorpID_0Corel-Layer"/>
  <path class="fil0" style="mask:url(#id0)" d="M99.91 101.03c7.29,-3.19 23.35,8.99 29.96,12.87l590.96 349.19c30.54,18.15 44.51,22.45 11.46,41.5 -37.37,21.54 -75.76,44.19 -112.69,66.43 -36.9,22.22 -75.32,43.57 -111.62,66.1 -18.81,11.68 -37.91,22.1 -56.74,33.57 -91.04,55.42 -189.13,110.32 -281.12,166 -19.15,11.59 -37.48,21.94 -56.71,33.58 -16.98,10.27 -21.43,0.14 -21.51,-16.69 -1.18,-237.41 0,-477.23 0.08,-715.12 0,-14.66 -3.95,-32.24 7.93,-37.43zm750.89 405.74c7.66,-37.16 -7.98,-68.35 -26.27,-85.75 -16.69,-15.87 -184.87,-111.77 -213.59,-128.94l-465.71 -275.25c-29.06,-17.11 -59.22,-23.21 -91.42,-8.6 -16.5,7.49 -22,12.96 -32.22,23.63 -21.96,22.94 -20.8,56.47 -21.01,93.71 -1.29,227.08 0.09,457.46 0.07,685.01 -0,30.66 -3.68,80.95 6.47,106.7 10.14,25.72 32.1,45.57 60.83,53.77 37.64,10.73 62.89,-4.98 87.83,-19.67l286.45 -169.28c43.27,-25.44 101.34,-61.7 143.17,-84.74 39.69,-21.85 102.1,-60.04 143.3,-84.54 23.98,-14.26 47.22,-28.22 72.04,-42.66 23.39,-13.61 43.44,-31.29 50.06,-63.39z"/>
 </g>
</svg>
