<?xml version="1.0" encoding="UTF-8"?>
<!DOCTYPE svg PUBLIC "-//W3C//DTD SVG 1.1//EN" "http://www.w3.org/Graphics/SVG/1.1/DTD/svg11.dtd">
<!-- Creator: CorelDRAW 2019 (64 Bit) -->
<svg xmlns="http://www.w3.org/2000/svg" xml:space="preserve" width="65.0287mm" height="64.956mm" version="1.1" style="shape-rendering:geometricPrecision; text-rendering:geometricPrecision; image-rendering:optimizeQuality; fill-rule:evenodd; clip-rule:evenodd"
viewBox="0 0 856.1 855.14"
 xmlns:xlink="http://www.w3.org/1999/xlink">
 <defs>
  <style type="text/css">
   <![CDATA[
    .fil0 {fill:#00E7F9}
   ]]>
  </style>
   <mask id="id0">
  <linearGradient id="id1" gradientUnits="userSpaceOnUse" x1="-21.12" y1="836.19" x2="620.9" y2="392.57">
   <stop offset="0" style="stop-opacity:1; stop-color:white"/>
   <stop offset="0.45098" style="stop-opacity:0.501961; stop-color:white"/>
   <stop offset="1" style="stop-opacity:0; stop-color:white"/>
  </linearGradient>
    <rect style="fill:url(#id1)" x="-0.03" y="-0.03" width="856.16" height="855.21"/>
   </mask>
 </defs>
 <g id="Camada_x0020_1">
  <metadata id="CorelCorpID_0Corel-Layer"/>
  <path class="fil0" style="mask:url(#id0)" d="M93.03 126.79c0,-37.61 -2.75,-35.09 34.99,-35.09l600.17 0.13c23.91,-0.15 35.88,-3.84 35.89,16.3l-0.09 70.35c0.87,165.2 -0.8,331.57 0.09,496.74 0.51,95.84 7.16,87.54 -34.46,87.54l-113.43 -0.09c-162.33,0.86 -325.94,-0.83 -488.18,0 -21.28,0.11 -34.98,3.59 -34.99,-15.67l0 -620.21zm-12.53 -125.57c-32.66,5.18 -51.79,21.92 -64.96,41.84 -17.12,25.88 -13.85,57.73 -13.86,92.34 -0.04,177.09 1.09,357.41 -0.03,534.07 -0.44,69.7 -13.76,135.08 43.24,170.68 28.05,17.52 55.12,14.06 91.74,14.05 176.7,-0.04 358.03,1.29 534.13,-0.03 29.87,-0.22 79.12,2.95 106.15,-1.14 31.12,-4.71 51.37,-21.45 64.54,-41.63 16.96,-25.99 13.97,-56.9 13.98,-91.69l0.11 -427.83c-0.01,-34.94 1.79,-191.93 -1.05,-212.57 -4.28,-31.09 -22.36,-52.5 -41.39,-64.71 -27.85,-17.86 -55.07,-14.32 -92.09,-14.32l-534.13 0.01c-19.3,0.06 -93.62,-1.1 -106.39,0.92z"/>
 </g>
</svg>
