<?xml version="1.0" encoding="UTF-8"?>
<!DOCTYPE svg PUBLIC "-//W3C//DTD SVG 1.1//EN" "http://www.w3.org/Graphics/SVG/1.1/DTD/svg11.dtd">
<!-- Creator: CorelDRAW 2019 (64 Bit) -->
<svg xmlns="http://www.w3.org/2000/svg" xml:space="preserve" width="71.7973mm" height="58.788mm" version="1.1" style="shape-rendering:geometricPrecision; text-rendering:geometricPrecision; image-rendering:optimizeQuality; fill-rule:evenodd; clip-rule:evenodd"
viewBox="0 0 1034.67 847.2"
 xmlns:xlink="http://www.w3.org/1999/xlink">
 <defs>
  <style type="text/css">
   <![CDATA[
    .fil1 {fill:#00E7F9}
    .fil0 {fill:url(#id0)}
   ]]>
  </style>
  <linearGradient id="id0" gradientUnits="userSpaceOnUse" x1="43.84" y1="261.42" x2="456.21" y2="261.42">
   <stop offset="0" style="stop-opacity:1; stop-color:#00A8E3"/>
   <stop offset="1" style="stop-opacity:1; stop-color:#00E7F9"/>
  </linearGradient>
 </defs>
 <g id="Camada_x0020_1">
  <metadata id="CorelCorpID_0Corel-Layer"/>
  <g id="_2165139215712">
   <path class="fil0" d="M455.24 271.86c3.71,-19.93 -3.85,-36.67 -12.7,-46 -8.07,-8.52 -89.4,-59.96 -103.28,-69.17l-225.19 -147.66c-14.05,-9.18 -28.63,-12.45 -44.2,-4.61 -7.98,4.02 -10.64,6.95 -15.58,12.68 -10.62,12.31 -10.06,30.29 -10.16,50.27 -0.62,121.82 0.04,245.41 0.03,367.48 0,16.45 -1.78,43.43 3.13,57.24 4.9,13.8 15.52,24.45 29.41,28.84 18.2,5.76 30.41,-2.67 42.47,-10.55l138.51 -90.81c20.92,-13.65 49,-33.1 69.23,-45.46 19.2,-11.72 49.37,-32.21 69.29,-45.35 11.59,-7.65 22.83,-15.14 34.83,-22.88 11.31,-7.3 21,-16.78 24.2,-34.01z"/>
   <rect class="fil1" x="0" y="749.19" width="1034.67" height="98.01" rx="82.18" ry="49"/>
   <rect class="fil1" x="326.77" y="516.93" width="707.91" height="98.01" rx="56.23" ry="49"/>
   <rect class="fil1" x="607.11" y="284.67" width="427.57" height="98.01" rx="33.96" ry="49"/>
   <rect class="fil1" x="607.11" y="52.4" width="427.57" height="98.01" rx="33.96" ry="49"/>
  </g>
 </g>
</svg>
