<?xml version="1.0" encoding="UTF-8"?>
<!DOCTYPE svg PUBLIC "-//W3C//DTD SVG 1.1//EN" "http://www.w3.org/Graphics/SVG/1.1/DTD/svg11.dtd">
<!-- Creator: CorelDRAW 2019 (64 Bit) -->
<svg xmlns="http://www.w3.org/2000/svg" xml:space="preserve" width="71.7973mm" height="71.7974mm" version="1.1" style="shape-rendering:geometricPrecision; text-rendering:geometricPrecision; image-rendering:optimizeQuality; fill-rule:evenodd; clip-rule:evenodd"
viewBox="0 0 1047.92 1047.92"
 xmlns:xlink="http://www.w3.org/1999/xlink">
 <defs>
  <style type="text/css">
   <![CDATA[
    .fil0 {fill:#00E7F9}
   ]]>
  </style>
 </defs>
 <g id="Camada_x0020_1">
  <metadata id="CorelCorpID_0Corel-Layer"/>
  <path class="fil0" d="M916.73 868.6c-96,110.77 -236.37,179.32 -392.77,179.32 -156.71,0 -297.33,-68.82 -393.35,-177.86l1.1 -0.41 -1.1 -0.41c96.02,-109.04 236.63,-177.86 393.35,-177.86 156.4,0 296.77,68.55 392.77,177.21 0,0 0,0 0,0zm-392.77 -659.66c115.98,0 210.01,94.03 210.01,210.01 0,115.98 -94.03,210.01 -210.01,210.01 -115.98,0 -210.01,-94.03 -210.01,-210.01 0,-115.98 94.03,-210.01 210.01,-210.01zm0 105c57.99,0 105.01,47.02 105.01,105.01 0,57.99 -47.02,105.01 -105.01,105.01 -57.99,0 -105.01,-47.02 -105.01,-105.01 0,-57.99 47.02,-105.01 105.01,-105.01zm0 -313.94c289.38,0 523.96,234.58 523.96,523.96 0,79.41 -17.69,154.67 -49.31,222.11l0 0c-8.87,22.17 -25.05,39.57 -51.74,39.57 -26.69,0 -52.1,-23.32 -52.1,-52.09 0,-9.81 2.71,-18.98 7.42,-26.82 26.76,-55.26 41.78,-117.25 41.78,-182.77 0,-231.98 -188.05,-420.02 -420.02,-420.02 -231.97,0 -420.02,188.04 -420.02,420.02 0,64.35 14.49,125.32 40.09,179.94l0 0c5.07,8.03 8.01,17.54 8.01,27.74 0,28.73 -23.29,52.01 -52.01,52.01 -23.1,0 -42.68,-15.06 -49.85,-35.71l0 0c-32.17,-67.91 -50.18,-143.84 -50.18,-223.98 0,-289.38 234.58,-523.96 523.96,-523.96zm-238.59 869.65c67.76,46.86 149.96,74.33 238.59,74.33 88.63,0 170.83,-27.46 238.59,-74.33 -67.76,-46.86 -149.96,-74.33 -238.59,-74.33 -88.63,0 -170.83,27.46 -238.59,74.33z"/>
 </g>
</svg>
