<?xml version="1.0" encoding="UTF-8"?>
<!DOCTYPE svg PUBLIC "-//W3C//DTD SVG 1.1//EN" "http://www.w3.org/Graphics/SVG/1.1/DTD/svg11.dtd">
<!-- Creator: CorelDRAW 2019 (64 Bit) -->
<svg xmlns="http://www.w3.org/2000/svg" xml:space="preserve" width="17.6025mm" height="32.4882mm" version="1.1" style="shape-rendering:geometricPrecision; text-rendering:geometricPrecision; image-rendering:optimizeQuality; fill-rule:evenodd; clip-rule:evenodd"
viewBox="0 0 123.28 227.53"
 xmlns:xlink="http://www.w3.org/1999/xlink">
 <defs>
  <style type="text/css">
   <![CDATA[
    .fil0 {fill:#00E7F9}
   ]]>
  </style>
 </defs>
 <g id="Camada_x0020_1">
  <metadata id="CorelCorpID_0Corel-Layer"/>
  <path class="fil0" d="M53.97 114c0.59,1.4 3.31,3.99 4.48,5.47l19.02 22.07c0.3,0.35 0.4,0.58 0.71,0.93l37.95 44.25c3.99,4.48 6.49,9.39 6.88,15.79 0.45,7.52 -2.5,13.87 -7.33,18.77 -2.05,2.08 -5.26,4.17 -8.18,5.08 -3.73,1.16 -7.34,1.52 -11.37,0.79 -4.84,-0.88 -7.79,-2.8 -11.02,-5.48 -1.72,-1.43 -7.71,-8.61 -9.71,-10.96l-19.17 -22.39c-2.14,-2.2 -4.02,-4.75 -6.13,-7.11l-1.49 -1.75c-0.33,-0.39 -0.47,-0.62 -0.72,-0.89l-22.75 -26.5c-1.91,-1.92 -3.49,-4.11 -5.26,-6.15 -0.57,-0.66 -1.11,-1.34 -1.59,-1.81l-3.75 -4.42c-0.37,-0.46 -0.32,-0.3 -0.79,-0.83 -2.12,-2.4 -3.7,-4.58 -6.02,-7 -0.63,-0.66 -1.11,-0.99 -1.74,-1.75l-3.81 -5.94c-3.04,-6.61 -2.98,-15.61 0.68,-22.21l0.98 -1.58c0.49,-0.78 0.8,-1.29 1.33,-1.93 0.62,-0.75 0.92,-1.16 1.49,-1.76l4.65 -5.32c0.54,-0.57 0.81,-0.99 1.51,-1.74l3.01 -3.49c0.3,-0.36 0.38,-0.57 0.71,-0.92l33.04 -38.45c2.18,-2.8 4.97,-5.43 7.1,-8.25 1.89,-2.51 4.07,-4.74 6.08,-7.17l1.5 -1.75c0.58,-0.66 0.99,-1.15 1.5,-1.71 0.69,-0.76 0.86,-1.09 1.51,-1.77l6.15 -7.07c0.26,-0.3 0.45,-0.62 0.72,-0.93l6.76 -7.88c0.33,-0.4 0.57,-0.52 0.9,-0.93l2.25 -2.64c3.47,-3.44 7.61,-5.73 13.07,-6.46 14.95,-2 27.24,10.98 26.09,25.63 -0.44,5.55 -2.26,10.17 -5.64,14.1l-9.13 10.62c-0.53,0.68 -0.97,1.08 -1.49,1.76l-2.99 3.53c-0.31,0.34 -0.47,0.39 -0.81,0.8l-5.34 6.25c-0.5,0.53 -0.95,1.11 -1.51,1.76l-1.5 1.73c-0.43,0.51 -1.07,1.22 -1.49,1.76 -2.16,2.75 -4.64,5.3 -6.88,7.98l-2.2 2.69c-2.04,2.33 -3.96,4.81 -6.04,6.96l-24.2 28.22z"/>
 </g>
</svg>
