<?xml version="1.0" encoding="UTF-8"?>
<!DOCTYPE svg PUBLIC "-//W3C//DTD SVG 1.1//EN" "http://www.w3.org/Graphics/SVG/1.1/DTD/svg11.dtd">
<!-- Creator: CorelDRAW 2019 (64 Bit) -->
<svg xmlns="http://www.w3.org/2000/svg" xml:space="preserve" width="32.4882mm" height="17.6025mm" version="1.1" style="shape-rendering:geometricPrecision; text-rendering:geometricPrecision; image-rendering:optimizeQuality; fill-rule:evenodd; clip-rule:evenodd"
viewBox="0 0 1261.54 683.52"
 xmlns:xlink="http://www.w3.org/1999/xlink">
 <defs>
  <style type="text/css">
   <![CDATA[
    .fil0 {fill:#00E7F9}
   ]]>
  </style>
 </defs>
 <g id="Camada_x0020_1">
  <metadata id="CorelCorpID_0Corel-Layer"/>
  <path class="fil0" d="M629.47 299.25c-7.76,3.29 -22.15,18.37 -30.32,24.84l-122.36 105.47c-1.93,1.67 -3.23,2.24 -5.15,3.93l-245.37 210.41c-24.82,22.12 -52.06,36 -87.57,38.14 -41.68,2.5 -76.92,-13.87 -104.07,-40.66 -11.54,-11.39 -23.12,-29.17 -28.16,-45.36 -6.43,-20.67 -8.42,-40.69 -4.38,-63.03 4.86,-26.82 15.5,-43.18 30.37,-61.1 7.91,-9.52 47.76,-42.75 60.76,-53.81l124.12 -106.29c12.18,-11.87 26.31,-22.29 39.4,-34.01l9.73 -8.26c2.18,-1.81 3.46,-2.62 4.94,-3.97l146.93 -126.14c10.62,-10.59 22.8,-19.36 34.1,-29.19 3.65,-3.17 7.42,-6.18 10.06,-8.82l24.49 -20.8c2.54,-2.05 1.65,-1.76 4.58,-4.35 13.28,-11.73 25.39,-20.49 38.82,-33.36 3.66,-3.51 5.47,-6.17 9.69,-9.64l32.94 -21.14c36.67,-16.87 86.55,-16.55 123.16,3.74l8.74 5.42c4.34,2.74 7.15,4.43 10.72,7.38 4.17,3.45 6.43,5.08 9.77,8.25l29.52 25.79c3.13,3.02 5.47,4.52 9.65,8.35l19.38 16.67c1.98,1.64 3.13,2.13 5.11,3.95l213.16 183.21c15.51,12.06 30.09,27.55 45.73,39.39 13.89,10.5 26.3,22.59 39.76,33.69l9.7 8.33c3.68,3.2 6.35,5.49 9.5,8.34 4.2,3.81 6.03,4.75 9.82,8.36l39.22 34.08c1.66,1.43 3.46,2.49 5.13,3.98l43.68 37.46c2.22,1.85 2.91,3.14 5.15,4.99l14.66 12.49c19.07,19.21 31.74,42.19 35.79,72.46 11.07,82.87 -60.89,151.05 -142.13,144.66 -30.8,-2.42 -56.36,-12.55 -78.19,-31.28l-58.91 -50.6c-3.76,-2.93 -6.01,-5.4 -9.73,-8.27l-19.55 -16.6c-1.91,-1.69 -2.17,-2.62 -4.46,-4.47l-34.66 -29.63c-2.96,-2.76 -6.17,-5.28 -9.76,-8.37l-9.59 -8.33c-2.83,-2.36 -6.74,-5.92 -9.75,-8.28 -15.25,-11.98 -29.39,-25.74 -44.26,-38.15l-14.94 -12.18c-12.93,-11.29 -26.69,-21.95 -38.56,-33.49l-156.44 -134.2z"/>
 </g>
</svg>
