<?xml version="1.0" encoding="UTF-8"?>
<!DOCTYPE svg PUBLIC "-//W3C//DTD SVG 1.1//EN" "http://www.w3.org/Graphics/SVG/1.1/DTD/svg11.dtd">
<!-- Creator: CorelDRAW 2019 (64 Bit) -->
<svg xmlns="http://www.w3.org/2000/svg" xml:space="preserve" width="72.6438mm" height="71.6577mm" version="1.1" style="shape-rendering:geometricPrecision; text-rendering:geometricPrecision; image-rendering:optimizeQuality; fill-rule:evenodd; clip-rule:evenodd"
viewBox="0 0 1072.77 1058.21"
 xmlns:xlink="http://www.w3.org/1999/xlink">
 <defs>
  <style type="text/css">
   <![CDATA[
    .str0 {stroke:#00E7F9;stroke-width:25.01;stroke-miterlimit:22.9256}
    .fil0 {fill:#00E7F9}
   ]]>
  </style>
    <mask id="id0">
  <linearGradient id="id1" gradientUnits="userSpaceOnUse" x1="506.24" y1="0" x2="506.25" y2="1022.48">
   <stop offset="0" style="stop-opacity:1; stop-color:white"/>
   <stop offset="0.560784" style="stop-opacity:-96.3804; stop-color:white"/>
   <stop offset="1" style="stop-opacity:0; stop-color:white"/>
  </linearGradient>
     <rect style="fill:url(#id1)" x="-0.62" y="-0.62" width="1013.74" height="970.19"/>
    </mask>
 </defs>
 <g id="Camada_x0020_1">
  <metadata id="CorelCorpID_0Corel-Layer"/>
  <g id="_2165295436720">
   <path class="fil0" style="mask:url(#id0)" d="M138.2 0l736.09 0c76.02,0 138.2,62.19 138.2,138.2l0 346.03 0 0.36 -0 0c-0.2,23.57 -19.36,42.62 -42.98,42.62 -23.62,0 -42.78,-19.05 -42.98,-42.62l-0 0 0 -0.24 -0 -0.12 0 -0.12 0 -318.79c0,-45.7 -37.39,-83.09 -83.09,-83.09l-674.38 0c-45.69,0 -83.09,37.39 -83.09,83.09l0 637.82c0,45.7 37.39,83.09 83.09,83.09l318.92 0 2.39 0 -0 0.07c21.72,1.24 38.97,19.24 38.97,41.28 0,22.84 -18.52,41.35 -41.35,41.35 -2.14,0 -4.24,-0.16 -6.3,-0.48l-343.47 0c-76.02,0 -138.2,-62.19 -138.2,-138.2l0 -692.06c0,-76.01 62.18,-138.2 138.2,-138.2zm71.1 219.28l0.01 0c27.64,0 50.25,22.61 50.25,50.24l0 0.01c0,27.64 -22.61,50.25 -50.25,50.25l-0.01 0c-27.64,0 -50.24,-22.61 -50.24,-50.25l0 -0.01c0,-27.63 22.61,-50.24 50.24,-50.24zm178.17 210.14l141.61 0c27.63,0 50.25,22.61 50.25,50.24l0 0.01c0,27.64 -22.62,50.24 -50.25,50.24l-141.61 0c-27.63,0 -50.25,-22.61 -50.25,-50.24l0 -0.01c0,-27.64 22.62,-50.24 50.25,-50.24zm-0.02 -210.14l360.92 0c27.64,0 50.24,22.61 50.24,50.24l0 0.01c0,27.64 -22.59,50.25 -50.24,50.25l-360.92 0c-27.65,0 -50.24,-22.61 -50.24,-50.25l0 -0.01c0,-27.63 22.59,-50.24 50.24,-50.24zm-178.16 210.14l0.01 0c27.64,0 50.25,22.61 50.25,50.24l0 0.01c0,27.64 -22.61,50.24 -50.25,50.24l-0.01 0c-27.64,0 -50.24,-22.61 -50.24,-50.24l0 -0.01c0,-27.64 22.61,-50.24 50.24,-50.24z"/>
   <path class="fil0 str0" d="M607.06 805.3c0,39.7 0,79.4 1.47,104.39 1.47,25 4.41,35.29 9.56,44.11 5.15,8.82 12.5,16.18 24.26,25.73 11.76,9.56 27.94,21.32 41.91,30.87 13.97,9.56 25.73,16.91 35.28,22.06 9.56,5.15 16.92,8.09 24.27,9.55 7.35,1.47 14.7,3.68 22.79,3.68 8.09,0 16.91,0 27.2,0 10.29,0 22.05,-2.21 36.02,-5.88 13.97,-3.67 30.15,-11.03 46.32,-19.85 16.18,-8.82 32.35,-19.12 44.11,-27.94 11.76,-8.82 19.12,-16.18 25,-22.06 5.88,-5.88 10.29,-10.29 13.23,-17.64 2.94,-7.35 4.42,-17.65 5.15,-42.64 0.73,-24.99 0.73,-64.69 0.73,-87.49 0,-22.79 0,-28.67 0,-34.55 -23.53,17.65 -47.05,35.29 -73.59,50.48 -26.53,15.19 -56.08,27.92 -89.9,29.39 -33.82,1.47 -71.91,-8.32 -99.05,-20.57 -27.13,-12.24 -43.31,-26.95 -57.28,-34.3 -13.97,-7.35 -25.73,-7.35 -37.49,-7.35zm44.11 30.87c0,29.41 0,58.81 0.73,76.46 0.74,17.65 2.2,23.52 8.09,30.14 5.88,6.62 16.17,13.97 28.67,22.06 12.5,8.09 27.21,16.91 38.97,22.79 11.76,5.88 20.59,8.83 28.68,11.03 8.09,2.2 15.44,3.68 21.32,4.41 5.88,0.74 10.29,0.74 16.91,0 6.62,-0.73 15.44,-2.21 24.26,-3.68 8.82,-1.47 17.65,-2.94 27.2,-7.36 9.56,-4.41 19.85,-11.76 28.67,-18.38 8.83,-6.62 16.18,-12.5 23.53,-18.38 7.35,-5.88 14.7,-11.76 19.11,-18.38 4.41,-6.62 5.89,-13.97 7.36,-32.35 1.47,-18.38 2.94,-47.79 4.41,-77.19 -13.23,8.82 -26.47,17.65 -41.91,26.47 -15.44,8.82 -33.08,17.65 -55.87,22.79 -22.79,5.15 -50.73,6.62 -75.73,2.94 -24.99,-3.67 -47.05,-12.5 -63.96,-20.58 -16.91,-8.09 -28.67,-15.44 -40.43,-22.79z"/>
   <path class="fil0 str0" d="M535.39 683.36l200.33 -117.29c28.05,-16.42 74.34,-14.38 105.71,3.49l193.6 110.31c31.37,17.87 33.82,76.82 5.57,92.7l-204.73 115.09c-28.25,15.88 -74.42,14.4 -105.72,-3.49l-189.19 -108.11c-31.3,-17.89 -33.61,-76.28 -5.56,-92.7zm47.16 8.1l162.94 -93.19c22.94,-13.12 60.32,-11.43 85.98,2.83l157.46 87.51c25.66,14.26 42.85,49.29 19.95,62.18l-181.94 102.43c-22.87,12.87 -60.55,11.56 -85.99,-2.84l-167.1 -94.55c-25.46,-14.41 -14.25,-51.26 8.7,-64.38z"/>
  </g>
 </g>
</svg>
