<?xml version="1.0" encoding="UTF-8"?>
<!DOCTYPE svg PUBLIC "-//W3C//DTD SVG 1.1//EN" "http://www.w3.org/Graphics/SVG/1.1/DTD/svg11.dtd">
<!-- Creator: CorelDRAW 2019 (64 Bit) -->
<svg xmlns="http://www.w3.org/2000/svg" xml:space="preserve" width="71.7974mm" height="71.7974mm" version="1.1" style="shape-rendering:geometricPrecision; text-rendering:geometricPrecision; image-rendering:optimizeQuality; fill-rule:evenodd; clip-rule:evenodd"
viewBox="0 0 1570.62 1570.62"
 xmlns:xlink="http://www.w3.org/1999/xlink">
 <defs>
  <style type="text/css">
   <![CDATA[
    .fil2 {fill:#0052B4}
    .fil0 {fill:#6DA544}
    .fil1 {fill:#FFDA44}
    .fil3 {fill:white}
   ]]>
  </style>
 </defs>
 <g id="Camada_x0020_1">
  <metadata id="CorelCorpID_0Corel-Layer"/>
  <g id="_2165139196256">
   <circle class="fil0" cx="785.31" cy="785.31" r="785.31"/>
   <polygon class="fil1" points="181.22,785.31 785.31,302.08 1389.4,785.31 785.31,1208.18 "/>
   <circle class="fil2" cx="785.31" cy="785.31" r="241.65"/>
   <path class="fil3" d="M1026.29 803.38c-2.51,34 -12.08,66.03 -27.2,94.67 -51.83,-91.71 -150.2,-153.62 -263.1,-153.62 -72.39,0 -138.81,25.47 -190.83,67.91 -0.99,-8.88 -1.51,-17.9 -1.51,-27.04 0,-26.53 4.29,-52.06 12.18,-75.95 53.17,-46.7 122.87,-75.02 199.22,-75.02 119.11,0 222.06,68.91 271.23,169.04z"/>
  </g>
 </g>
</svg>
