<?xml version="1.0" encoding="UTF-8"?>
<!DOCTYPE svg PUBLIC "-//W3C//DTD SVG 1.1//EN" "http://www.w3.org/Graphics/SVG/1.1/DTD/svg11.dtd">
<!-- Creator: CorelDRAW 2019 (64 Bit) -->
<svg xmlns="http://www.w3.org/2000/svg" xml:space="preserve" width="71.7964mm" height="71.8744mm" version="1.1" style="shape-rendering:geometricPrecision; text-rendering:geometricPrecision; image-rendering:optimizeQuality; fill-rule:evenodd; clip-rule:evenodd"
viewBox="0 0 1048.25 1049.39"
 xmlns:xlink="http://www.w3.org/1999/xlink">
 <defs>
  <style type="text/css">
   <![CDATA[
    .fil0 {fill:#00E4F8}
   ]]>
  </style>
 </defs>
 <g id="Camada_x0020_1">
  <metadata id="CorelCorpID_0Corel-Layer"/>
  <path class="fil0" d="M331.41 915.53c89.9,-143.64 45.71,-72.76 306.65,-97.01 27.92,26.95 60.96,62.59 79.04,97.01 -74.87,63.84 -314.59,68.93 -385.69,0zm445.13 -200.21c41.2,25.96 110.28,77.44 133.69,121.99l-75.99 70.43c-38.53,-21.27 -107.29,-103.86 -119.41,-145.43l61.71 -46.99zm-635.9 119.43c20.62,-39.37 97.43,-96.25 131.81,-123.31l63.62 67.89c-43.67,42.41 -67.35,90.69 -113.47,128.2 -40.19,-19.71 -55.43,-43.3 -81.96,-72.78zm338.85 -533.29c130.64,-29.54 243.8,62.56 267.77,169.99 31.04,139.15 -67.38,253.77 -171.74,275.6 -299.93,62.73 -396.44,-377.65 -96.03,-445.59zm339.18 337.12c26.74,-264.48 -49.06,-212.38 96.36,-307.31 76.24,72.42 69.48,317.31 0,386.31 -29.08,-17.83 -71.64,-55.11 -96.36,-79zm-688.39 78.68c-64.91,-94.67 -68.27,-289.31 0,-385.82 34.13,13.71 70.24,53.4 103.02,75.44 -20.43,125.99 -15.27,110.76 -2.68,231.7 -23.38,23.67 -75.98,68.69 -100.34,78.68zm10.59 -494.08c16.38,-33.79 47.98,-64.59 81.73,-82.78 44.35,40.93 69.17,87.73 113.14,127.75 -12.9,23.86 -42.58,54.22 -66.1,67.14 -39.61,-28.31 -91.42,-75.98 -128.76,-112.11zm571.66 49.53c22.1,-30.09 82.12,-114.29 124.36,-134.69l73.5 83.39c-38.72,44.35 -91.32,74.91 -135.66,113.96l-62.2 -62.66zm-381.45 -141.85c90.89,-69.76 296.71,-66.83 386.2,0 -10.12,23.86 -56.01,77.96 -79.22,99.9 -118.27,-14.88 -110.77,-18.19 -230.47,2.07 -25,-38.32 -55.3,-60.09 -76.5,-101.97zm652.99 126.93c4.55,-119.62 -66.67,-193.54 -184.17,-197.39 -88.51,-2.9 -128,-77.61 -334.99,-56.72 -83.88,8.47 -147.09,49.99 -198.15,55.69 -132.1,14.77 -95.79,3.79 -175.98,89.59 -49.29,52.74 -3.5,40.32 -60.96,203.99 -80.1,228.16 26,357.21 30.57,436.48 4.33,75.05 -10.38,86.24 91.8,173.22 52.52,44.69 57.41,20.15 114.25,26.03 29.39,3.04 58.42,20.75 92.47,32.42 228.23,78.17 352.47,-30.1 441.25,-33.16 58.59,-2.01 73.73,-3.88 107.48,-33.78 16.5,-14.6 49.9,-47.24 62.39,-64.78 27.07,-38.01 15.08,-58.26 16.85,-101.84 1.5,-37 18.41,-52.44 32.23,-90.9 82.55,-229.62 -36.7,-395.21 -35.03,-438.84z"/>
 </g>
</svg>
